<?xml version="1.0" encoding="UTF-8" standalone="no"?>
<!DOCTYPE svg PUBLIC "-//W3C//DTD SVG 1.1//EN"
 "http://www.w3.org/Graphics/SVG/1.1/DTD/svg11.dtd">
<!-- Generated by graphviz version 2.40.1 (20161225.0304)
 -->
<!-- Title: G Pages: 1 -->
<svg width="547pt" height="470pt"
 viewBox="0.00 0.00 547.31 470.00" xmlns="http://www.w3.org/2000/svg" xmlns:xlink="http://www.w3.org/1999/xlink">
<g id="graph0" class="graph" transform="scale(1 1) rotate(0) translate(4 466)">
<title>G</title>
<polygon fill="#ffffff" stroke="transparent" points="-4,4 -4,-466 543.312,-466 543.312,4 -4,4"/>
<g id="clust1" class="cluster">
<title>cluster_Global</title>
<path fill="none" stroke="#c0c0c0" d="M351.0937,-8C351.0937,-8 519.312,-8 519.312,-8 525.312,-8 531.312,-14 531.312,-20 531.312,-20 531.312,-442 531.312,-442 531.312,-448 525.312,-454 519.312,-454 519.312,-454 351.0937,-454 351.0937,-454 345.0937,-454 339.0937,-448 339.0937,-442 339.0937,-442 339.0937,-20 339.0937,-20 339.0937,-14 345.0937,-8 351.0937,-8"/>
<text text-anchor="middle" x="435.2029" y="-441.2" font-family="Times,serif" font-size="11.00" fill="#c0c0c0">Global</text>
</g>
<g id="clust2" class="cluster">
<title>cluster_\BootstrapUI</title>
<path fill="none" stroke="#c0c0c0" d="M359.0937,-16C359.0937,-16 511.312,-16 511.312,-16 517.312,-16 523.312,-22 523.312,-28 523.312,-28 523.312,-415 523.312,-415 523.312,-421 517.312,-427 511.312,-427 511.312,-427 359.0937,-427 359.0937,-427 353.0937,-427 347.0937,-421 347.0937,-415 347.0937,-415 347.0937,-28 347.0937,-28 347.0937,-22 353.0937,-16 359.0937,-16"/>
<text text-anchor="middle" x="435.2029" y="-414.2" font-family="Times,serif" font-size="11.00" fill="#c0c0c0">BootstrapUI</text>
</g>
<g id="clust3" class="cluster">
<title>cluster_\BootstrapUI\View</title>
<path fill="none" stroke="#c0c0c0" d="M367.0937,-24C367.0937,-24 503.312,-24 503.312,-24 509.312,-24 515.312,-30 515.312,-36 515.312,-36 515.312,-388 515.312,-388 515.312,-394 509.312,-400 503.312,-400 503.312,-400 367.0937,-400 367.0937,-400 361.0937,-400 355.0937,-394 355.0937,-388 355.0937,-388 355.0937,-36 355.0937,-36 355.0937,-30 361.0937,-24 367.0937,-24"/>
<text text-anchor="middle" x="435.2029" y="-387.2" font-family="Times,serif" font-size="11.00" fill="#c0c0c0">View</text>
</g>
<g id="clust4" class="cluster">
<title>cluster_\BootstrapUI\View\Helper</title>
<path fill="none" stroke="#c0c0c0" d="M375.0937,-32C375.0937,-32 495.312,-32 495.312,-32 501.312,-32 507.312,-38 507.312,-44 507.312,-44 507.312,-361 507.312,-361 507.312,-367 501.312,-373 495.312,-373 495.312,-373 375.0937,-373 375.0937,-373 369.0937,-373 363.0937,-367 363.0937,-361 363.0937,-361 363.0937,-44 363.0937,-44 363.0937,-38 369.0937,-32 375.0937,-32"/>
<text text-anchor="middle" x="435.2029" y="-360.2" font-family="Times,serif" font-size="11.00" fill="#c0c0c0">Helper</text>
</g>
<!-- \\BootstrapUI\\View\\Helper\\BreadcrumbsHelper -->
<g id="node1" class="node">
<title>\\BootstrapUI\\View\\Helper\\BreadcrumbsHelper</title>
<polygon fill="none" stroke="#000000" points="499.4213,-346 370.9844,-346 370.9844,-310 499.4213,-310 499.4213,-346"/>
<text text-anchor="middle" x="435.2029" y="-324.7" font-family="Courier,monospace" font-size="11.00" fill="#000000">BreadcrumbsHelper</text>
</g>
<!-- \\Cake\\View\\Helper\\BreadcrumbsHelper -->
<g id="node7" class="node">
<title>\\Cake\\View\\Helper\\BreadcrumbsHelper</title>
<ellipse fill="none" stroke="#000000" cx="149.5469" cy="-328" rx="149.5937" ry="18"/>
<text text-anchor="middle" x="149.5469" y="-323.8" font-family="Times,serif" font-size="14.00" fill="#c0c0c0">\Cake\ViewHelper\BreadcrumbsHelper</text>
</g>
<!-- \\BootstrapUI\\View\\Helper\\BreadcrumbsHelper&#45;&gt;\\Cake\\View\\Helper\\BreadcrumbsHelper -->
<g id="edge1" class="edge">
<title>\\BootstrapUI\\View\\Helper\\BreadcrumbsHelper&#45;&gt;\\Cake\\View\\Helper\\BreadcrumbsHelper</title>
<path fill="none" stroke="#000000" d="M370.7399,-328C352.1177,-328 330.9214,-328 309.1986,-328"/>
<polygon fill="none" stroke="#000000" points="309.1882,-324.5001 299.1882,-328 309.1881,-331.5001 309.1882,-324.5001"/>
</g>
<!-- \\BootstrapUI\\View\\Helper\\FlashHelper -->
<g id="node2" class="node">
<title>\\BootstrapUI\\View\\Helper\\FlashHelper</title>
<polygon fill="none" stroke="#000000" points="479.3155,-292 391.0902,-292 391.0902,-256 479.3155,-256 479.3155,-292"/>
<text text-anchor="middle" x="435.2029" y="-270.7" font-family="Courier,monospace" font-size="11.00" fill="#000000">FlashHelper</text>
</g>
<!-- \\Cake\\View\\Helper -->
<g id="node8" class="node">
<title>\\Cake\\View\\Helper</title>
<ellipse fill="none" stroke="#000000" cx="149.5469" cy="-274" rx="75.7604" ry="18"/>
<text text-anchor="middle" x="149.5469" y="-269.8" font-family="Times,serif" font-size="14.00" fill="#c0c0c0">\Cake\ViewHelper</text>
</g>
<!-- \\BootstrapUI\\View\\Helper\\FlashHelper&#45;&gt;\\Cake\\View\\Helper -->
<g id="edge2" class="edge">
<title>\\BootstrapUI\\View\\Helper\\FlashHelper&#45;&gt;\\Cake\\View\\Helper</title>
<path fill="none" stroke="#000000" d="M390.8825,-274C349.5993,-274 286.9081,-274 235.7681,-274"/>
<polygon fill="none" stroke="#000000" points="235.7039,-270.5001 225.7039,-274 235.7038,-277.5001 235.7039,-270.5001"/>
</g>
<!-- \\BootstrapUI\\View\\Helper\\FormHelper -->
<g id="node3" class="node">
<title>\\BootstrapUI\\View\\Helper\\FormHelper</title>
<polygon fill="none" stroke="#000000" points="476.2136,-238 394.1921,-238 394.1921,-202 476.2136,-202 476.2136,-238"/>
<text text-anchor="middle" x="435.2029" y="-216.7" font-family="Courier,monospace" font-size="11.00" fill="#000000">FormHelper</text>
</g>
<!-- \\Cake\\View\\Helper\\FormHelper -->
<g id="node9" class="node">
<title>\\Cake\\View\\Helper\\FormHelper</title>
<ellipse fill="none" stroke="#000000" cx="149.5469" cy="-220" rx="121.6226" ry="18"/>
<text text-anchor="middle" x="149.5469" y="-215.8" font-family="Times,serif" font-size="14.00" fill="#c0c0c0">\Cake\ViewHelper\FormHelper</text>
</g>
<!-- \\BootstrapUI\\View\\Helper\\FormHelper&#45;&gt;\\Cake\\View\\Helper\\FormHelper -->
<g id="edge3" class="edge">
<title>\\BootstrapUI\\View\\Helper\\FormHelper&#45;&gt;\\Cake\\View\\Helper\\FormHelper</title>
<path fill="none" stroke="#000000" d="M393.9711,-220C364.1391,-220 322.047,-220 281.1841,-220"/>
<polygon fill="none" stroke="#000000" points="281.109,-216.5001 271.109,-220 281.1089,-223.5001 281.109,-216.5001"/>
</g>
<!-- \\BootstrapUI\\View\\Helper\\HtmlHelper -->
<g id="node4" class="node">
<title>\\BootstrapUI\\View\\Helper\\HtmlHelper</title>
<polygon fill="none" stroke="#000000" points="476.2136,-184 394.1921,-184 394.1921,-148 476.2136,-148 476.2136,-184"/>
<text text-anchor="middle" x="435.2029" y="-162.7" font-family="Courier,monospace" font-size="11.00" fill="#000000">HtmlHelper</text>
</g>
<!-- \\Cake\\View\\Helper\\HtmlHelper -->
<g id="node10" class="node">
<title>\\Cake\\View\\Helper\\HtmlHelper</title>
<ellipse fill="none" stroke="#000000" cx="149.5469" cy="-166" rx="118.2396" ry="18"/>
<text text-anchor="middle" x="149.5469" y="-161.8" font-family="Times,serif" font-size="14.00" fill="#c0c0c0">\Cake\ViewHelperHtmlHelper</text>
</g>
<!-- \\BootstrapUI\\View\\Helper\\HtmlHelper&#45;&gt;\\Cake\\View\\Helper\\HtmlHelper -->
<g id="edge4" class="edge">
<title>\\BootstrapUI\\View\\Helper\\HtmlHelper&#45;&gt;\\Cake\\View\\Helper\\HtmlHelper</title>
<path fill="none" stroke="#000000" d="M393.9711,-166C363.3609,-166 319.8425,-166 277.9887,-166"/>
<polygon fill="none" stroke="#000000" points="277.9623,-162.5001 267.9622,-166 277.9622,-169.5001 277.9623,-162.5001"/>
</g>
<!-- \\BootstrapUI\\View\\Helper\\PaginatorHelper -->
<g id="node5" class="node">
<title>\\BootstrapUI\\View\\Helper\\PaginatorHelper</title>
<polygon fill="none" stroke="#000000" points="492.719,-130 377.6867,-130 377.6867,-94 492.719,-94 492.719,-130"/>
<text text-anchor="middle" x="435.2029" y="-108.7" font-family="Courier,monospace" font-size="11.00" fill="#000000">PaginatorHelper</text>
</g>
<!-- \\Cake\\View\\Helper\\PaginatorHelper -->
<g id="node11" class="node">
<title>\\Cake\\View\\Helper\\PaginatorHelper</title>
<ellipse fill="none" stroke="#000000" cx="149.5469" cy="-112" rx="136.0809" ry="18"/>
<text text-anchor="middle" x="149.5469" y="-107.8" font-family="Times,serif" font-size="14.00" fill="#c0c0c0">\Cake\ViewHelper\PaginatorHelper</text>
</g>
<!-- \\BootstrapUI\\View\\Helper\\PaginatorHelper&#45;&gt;\\Cake\\View\\Helper\\PaginatorHelper -->
<g id="edge5" class="edge">
<title>\\BootstrapUI\\View\\Helper\\PaginatorHelper&#45;&gt;\\Cake\\View\\Helper\\PaginatorHelper</title>
<path fill="none" stroke="#000000" d="M377.3961,-112C353.6984,-112 325.091,-112 296.2719,-112"/>
<polygon fill="none" stroke="#000000" points="296.0772,-108.5001 286.0772,-112 296.0771,-115.5001 296.0772,-108.5001"/>
</g>
<!-- \\BootstrapUI\\View\\Helper\\OptionsAwareTrait -->
<g id="node6" class="node">
<title>\\BootstrapUI\\View\\Helper\\OptionsAwareTrait</title>
<polygon fill="none" stroke="#000000" points="499.4213,-76 370.9844,-76 370.9844,-40 499.4213,-40 499.4213,-76"/>
<text text-anchor="middle" x="435.2029" y="-54.7" font-family="Courier,monospace" font-size="11.00" fill="#000000">OptionsAwareTrait</text>
</g>
</g>
</svg>
